<mxfile host="app.diagrams.net" modified="2021-12-30T10:15:01.492Z" agent="5.0 (Macintosh; Intel Mac OS X 10_15_7) AppleWebKit/537.36 (KHTML, like Gecko) Chrome/96.0.4664.110 Safari/537.36" etag="its5tTiQOM30fLcu60tB" version="16.1.0" type="github">
  <diagram id="LCYlUeqz_Hxuz02imdLR" name="Page-1">
    <mxGraphModel dx="1032" dy="652" grid="1" gridSize="10" guides="1" tooltips="1" connect="1" arrows="1" fold="1" page="1" pageScale="1" pageWidth="2336" pageHeight="1654" math="0" shadow="0">
      <root>
        <mxCell id="0" />
        <mxCell id="1" parent="0" />
        <mxCell id="FqZSSXWBveTEOpzE2NjO-4" style="edgeStyle=orthogonalEdgeStyle;rounded=0;orthogonalLoop=1;jettySize=auto;html=1;exitX=1;exitY=0.5;exitDx=0;exitDy=0;entryX=0;entryY=0.5;entryDx=0;entryDy=0;" parent="1" source="FqZSSXWBveTEOpzE2NjO-2" target="FqZSSXWBveTEOpzE2NjO-3" edge="1">
          <mxGeometry relative="1" as="geometry" />
        </mxCell>
        <mxCell id="FqZSSXWBveTEOpzE2NjO-2" value="Biometric Devices (L1)" style="rounded=0;whiteSpace=wrap;html=1;" parent="1" vertex="1">
          <mxGeometry x="210" y="200" width="80" height="100" as="geometry" />
        </mxCell>
        <mxCell id="FqZSSXWBveTEOpzE2NjO-7" style="edgeStyle=orthogonalEdgeStyle;rounded=0;orthogonalLoop=1;jettySize=auto;html=1;entryX=0;entryY=0.5;entryDx=0;entryDy=0;" parent="1" edge="1">
          <mxGeometry relative="1" as="geometry">
            <mxPoint x="530" y="235" as="sourcePoint" />
            <mxPoint x="663" y="235" as="targetPoint" />
          </mxGeometry>
        </mxCell>
        <mxCell id="FqZSSXWBveTEOpzE2NjO-3" value="Authentication client" style="rounded=0;whiteSpace=wrap;html=1;" parent="1" vertex="1">
          <mxGeometry x="410" y="210" width="120" height="80" as="geometry" />
        </mxCell>
        <mxCell id="FqZSSXWBveTEOpzE2NjO-5" value="Signed &amp;amp; Encrypted biometrics&amp;nbsp;" style="text;html=1;strokeColor=none;fillColor=none;align=center;verticalAlign=middle;whiteSpace=wrap;rounded=0;" parent="1" vertex="1">
          <mxGeometry x="320" y="202" width="60" height="50" as="geometry" />
        </mxCell>
        <mxCell id="9QMCUtVHab_PVGRH12ZZ-3" style="edgeStyle=orthogonalEdgeStyle;rounded=0;orthogonalLoop=1;jettySize=auto;html=1;exitX=0;exitY=0.75;exitDx=0;exitDy=0;" edge="1" parent="1" source="FqZSSXWBveTEOpzE2NjO-6">
          <mxGeometry relative="1" as="geometry">
            <mxPoint x="530" y="270" as="targetPoint" />
            <Array as="points">
              <mxPoint x="663" y="270" />
            </Array>
          </mxGeometry>
        </mxCell>
        <mxCell id="FqZSSXWBveTEOpzE2NjO-6" value="IDA Services" style="rounded=0;whiteSpace=wrap;html=1;" parent="1" vertex="1">
          <mxGeometry x="663" y="220" width="120" height="60" as="geometry" />
        </mxCell>
        <mxCell id="FqZSSXWBveTEOpzE2NjO-9" style="edgeStyle=orthogonalEdgeStyle;rounded=0;orthogonalLoop=1;jettySize=auto;html=1;entryX=0.5;entryY=1;entryDx=0;entryDy=0;" parent="1" source="FqZSSXWBveTEOpzE2NjO-8" target="FqZSSXWBveTEOpzE2NjO-6" edge="1">
          <mxGeometry relative="1" as="geometry" />
        </mxCell>
        <mxCell id="FqZSSXWBveTEOpzE2NjO-8" value="" style="shape=cylinder3;whiteSpace=wrap;html=1;boundedLbl=1;backgroundOutline=1;size=15;" parent="1" vertex="1">
          <mxGeometry x="693" y="380" width="60" height="80" as="geometry" />
        </mxCell>
        <mxCell id="FqZSSXWBveTEOpzE2NjO-10" value="Zero Knowledge encrypted&amp;nbsp;" style="text;html=1;strokeColor=none;fillColor=none;align=center;verticalAlign=middle;whiteSpace=wrap;rounded=0;" parent="1" vertex="1">
          <mxGeometry x="740" y="310" width="60" height="30" as="geometry" />
        </mxCell>
        <mxCell id="FqZSSXWBveTEOpzE2NjO-14" value="1" style="ellipse;whiteSpace=wrap;html=1;aspect=fixed;" parent="1" vertex="1">
          <mxGeometry x="340" y="260" width="20" height="20" as="geometry" />
        </mxCell>
        <mxCell id="FqZSSXWBveTEOpzE2NjO-15" value="2" style="ellipse;whiteSpace=wrap;html=1;aspect=fixed;" parent="1" vertex="1">
          <mxGeometry x="590" y="210" width="20" height="20" as="geometry" />
        </mxCell>
        <mxCell id="9QMCUtVHab_PVGRH12ZZ-5" value="3" style="ellipse;whiteSpace=wrap;html=1;aspect=fixed;" vertex="1" parent="1">
          <mxGeometry x="590" y="280" width="20" height="20" as="geometry" />
        </mxCell>
        <mxCell id="9QMCUtVHab_PVGRH12ZZ-6" value="4" style="ellipse;whiteSpace=wrap;html=1;aspect=fixed;" vertex="1" parent="1">
          <mxGeometry x="700" y="320" width="20" height="20" as="geometry" />
        </mxCell>
      </root>
    </mxGraphModel>
  </diagram>
</mxfile>
